<?xml version="1.0" encoding="UTF-8"?>
<svg width="86px" height="42px" viewBox="0 0 86 42" version="1.1" xmlns="http://www.w3.org/2000/svg" xmlns:xlink="http://www.w3.org/1999/xlink">
    <!-- Generator: Sketch 58 (84663) - https://sketch.com -->
    <title>Combined Shape</title>
    <desc>Created with Sketch.</desc>
    <g id="Website" stroke="none" stroke-width="1" fill="none" fill-rule="evenodd">
        <g id="Ontwerp---Briq-Homepage---V1" transform="translate(-292.000000, -25.000000)" fill="#162743">
            <path d="M364.643772,33.203125 C367.239205,33.203125 369.563529,34.1208936 371.40521,35.7120121 L371.653337,35.9331335 L372.663351,33.9978806 L378,33.9974318 L378,63.7114947 L370.216204,67 L370.216204,57.4503592 C368.602976,58.4862361 366.710788,59.0650158 364.643772,59.0650158 C357.654104,59.0650158 352.657795,53.6822294 352.657795,46.1212737 C352.657795,38.5859114 357.629552,33.203125 364.643772,33.203125 Z M299.993229,25 L299.993229,34.6704258 C301.673336,33.5986283 303.65556,32.9991936 305.826442,32.9987442 C313.054167,32.9987442 318.159696,38.3622226 318.159696,45.8975849 C318.159696,53.4329471 313.054167,58.796875 305.826442,58.796875 C303.206081,58.796875 300.864921,57.9288151 298.997358,56.4131448 L298.745645,56.2024691 L297.983184,58.0025682 L292,58.0025682 L292,28.2885053 L299.993229,25 Z M336.798479,34.0234375 L336.798479,41.3319158 L333.743184,41.3319158 C331.036594,41.3319158 329.858048,42.5021179 329.792912,45.2802248 L329.790044,45.5295357 L329.790044,57.3203125 L321.920152,57.3203125 L321.920152,34.1337891 L327.192556,34.1337891 L328.420429,36.7070635 C329.967193,34.891301 331.837997,34.0885728 334.391088,34.0272597 L334.713804,34.0234375 L336.798479,34.0234375 Z M348.897338,34.0234375 L348.897338,57.3203125 L340.722433,57.3203125 L340.722433,34.0234375 L348.897338,34.0234375 Z M365.696964,40.572352 C362.747774,40.572352 360.580012,42.954823 360.580012,46.1212737 C360.580012,49.2872749 362.765976,51.6697459 365.696964,51.6697459 C368.646154,51.6697459 370.813916,49.2872749 370.813916,46.1212737 C370.813916,42.954823 368.646154,40.572352 365.696964,40.572352 Z M304.744913,40.3675217 C301.716371,40.3675217 299.490282,42.7311342 299.490282,45.8975849 C299.490282,49.0379926 301.716371,51.4016051 304.744913,51.4016051 C307.754762,51.4016051 309.999543,49.0379926 309.999543,45.8975849 C309.999543,42.7311342 307.773454,40.3675217 304.744913,40.3675217 Z" id="Combined-Shape"></path>
        </g>
    </g>
</svg>